<mxfile host="app.diagrams.net" agent="Mozilla/5.0 (Windows NT 10.0; Win64; x64) AppleWebKit/537.36 (KHTML, like Gecko) Chrome/133.0.0.0 Safari/537.36 Edg/133.0.0.0" version="26.0.16">
  <diagram id="3228e29e-7158-1315-38df-8450db1d8a1d" name="Page-1">
    <mxGraphModel dx="1426" dy="781" grid="1" gridSize="10" guides="1" tooltips="1" connect="1" arrows="1" fold="1" page="1" pageScale="1" pageWidth="1920" pageHeight="1200" background="none" math="0" shadow="0">
      <root>
        <mxCell id="0" />
        <mxCell id="1" parent="0" />
        <mxCell id="21635" value="&lt;div style=&quot;text-align: center ; font-size: 16px&quot;&gt;&lt;br&gt;&lt;/div&gt;" style="ellipse;whiteSpace=wrap;html=1;aspect=fixed;rounded=1;shadow=0;glass=0;labelBackgroundColor=none;strokeColor=none;strokeWidth=1;fillColor=#F08705;gradientColor=none;fontFamily=Helvetica;fontSize=16;fontColor=#2F5B7C;align=center;opacity=50;verticalAlign=top;spacing=15;" parent="1" vertex="1">
          <mxGeometry x="724.5" y="231" width="45" height="45" as="geometry" />
        </mxCell>
        <mxCell id="21636" value="" style="ellipse;whiteSpace=wrap;html=1;aspect=fixed;rounded=1;shadow=0;glass=0;labelBackgroundColor=none;strokeColor=none;strokeWidth=1;fillColor=#736CA8;gradientColor=none;fontFamily=Helvetica;fontSize=16;fontColor=#2F5B7C;align=left;opacity=50;spacing=15;" parent="1" vertex="1">
          <mxGeometry x="724.5" y="231" width="45" height="45" as="geometry" />
        </mxCell>
        <mxCell id="21638" value="place" style="ellipse;whiteSpace=wrap;html=1;aspect=fixed;rounded=1;shadow=0;glass=0;labelBackgroundColor=none;strokeColor=none;strokeWidth=1;fillColor=#736CA8;gradientColor=none;fontFamily=Helvetica;fontSize=16;fontColor=#2F5B7C;align=left;opacity=50;spacing=15;" parent="1" vertex="1">
          <mxGeometry x="10" y="63.5" width="200" height="200" as="geometry" />
        </mxCell>
        <mxCell id="21639" value="D" style="ellipse;whiteSpace=wrap;html=1;aspect=fixed;rounded=1;shadow=0;glass=0;labelBackgroundColor=none;strokeColor=none;strokeWidth=1;fillColor=light-dark(#3333FF,#0E919B);gradientColor=none;fontFamily=Helvetica;fontSize=16;fontColor=#2F5B7C;align=right;opacity=50;spacing=15;" parent="1" vertex="1">
          <mxGeometry x="400" y="410" width="120" height="120" as="geometry" />
        </mxCell>
        <mxCell id="21640" value="&lt;div style=&quot;text-align: center; font-size: 16px;&quot;&gt;U&lt;/div&gt;" style="ellipse;whiteSpace=wrap;html=1;aspect=fixed;rounded=1;shadow=0;glass=0;labelBackgroundColor=none;strokeColor=none;strokeWidth=1;fillColor=#AE4132;gradientColor=none;fontFamily=Helvetica;fontSize=16;fontColor=#2F5B7C;align=center;opacity=50;verticalAlign=bottom;spacingBottom=15;spacing=15;" parent="1" vertex="1">
          <mxGeometry x="70" y="410" width="120" height="120" as="geometry" />
        </mxCell>
        <mxCell id="21643" value="x" style="ellipse;whiteSpace=wrap;html=1;aspect=fixed;rounded=1;shadow=0;glass=0;labelBackgroundColor=none;strokeColor=none;strokeWidth=1;fillColor=#12AAB5;gradientColor=none;fontFamily=Helvetica;fontSize=16;fontColor=#2F5B7C;align=center;opacity=50;spacing=15;" parent="1" vertex="1">
          <mxGeometry x="724.5" y="231" width="45" height="45" as="geometry" />
        </mxCell>
        <mxCell id="21644" value="success" style="text;html=1;resizable=0;points=[];autosize=1;align=left;verticalAlign=top;spacingTop=-4;fontSize=16;fontFamily=Helvetica;fontColor=#2F5B7C;" parent="1" vertex="1">
          <mxGeometry x="794.5" y="243.5" width="70" height="20" as="geometry" />
        </mxCell>
        <mxCell id="21645" value="" style="ellipse;whiteSpace=wrap;html=1;aspect=fixed;rounded=1;shadow=0;glass=0;labelBackgroundColor=none;strokeColor=none;strokeWidth=1;fillColor=#12AAB5;gradientColor=none;fontFamily=Helvetica;fontSize=16;fontColor=#2F5B7C;align=center;opacity=50;spacing=15;" parent="1" vertex="1">
          <mxGeometry x="724.5" y="313.5" width="45" height="45" as="geometry" />
        </mxCell>
        <mxCell id="21646" value="" style="ellipse;whiteSpace=wrap;html=1;aspect=fixed;rounded=1;shadow=0;glass=0;labelBackgroundColor=none;strokeColor=none;strokeWidth=1;fillColor=#AE4132;gradientColor=none;fontFamily=Helvetica;fontSize=16;fontColor=#2F5B7C;align=center;opacity=50;spacing=15;" parent="1" vertex="1">
          <mxGeometry x="724.5" y="313.5" width="45" height="45" as="geometry" />
        </mxCell>
        <mxCell id="21647" value="y" style="ellipse;whiteSpace=wrap;html=1;aspect=fixed;rounded=1;shadow=0;glass=0;labelBackgroundColor=none;strokeColor=none;strokeWidth=1;fillColor=#56517E;gradientColor=none;fontFamily=Helvetica;fontSize=16;fontColor=#2F5B7C;align=center;opacity=50;spacing=15;" parent="1" vertex="1">
          <mxGeometry x="724.5" y="313.5" width="45" height="45" as="geometry" />
        </mxCell>
        <mxCell id="21648" value="failure" style="text;html=1;resizable=0;points=[];autosize=1;align=left;verticalAlign=top;spacingTop=-4;fontSize=16;fontFamily=Helvetica;fontColor=#2F5B7C;" parent="1" vertex="1">
          <mxGeometry x="799.5" y="336" width="60" height="20" as="geometry" />
        </mxCell>
        <mxCell id="21637" value="&lt;div style=&quot;text-align: center; font-size: 16px;&quot;&gt;&lt;span style=&quot;font-size: 16px;&quot;&gt;U&lt;/span&gt;&lt;/div&gt;" style="ellipse;whiteSpace=wrap;html=1;aspect=fixed;rounded=1;shadow=0;glass=0;labelBackgroundColor=none;strokeColor=#82B366;strokeWidth=1;fillColor=#82B366;fontFamily=Helvetica;fontSize=16;align=center;opacity=50;verticalAlign=top;spacing=15;" parent="1" vertex="1">
          <mxGeometry x="230" y="410" width="120" height="120" as="geometry" />
        </mxCell>
        <mxCell id="U8a9kqxpGam07MCW7ury-21656" value="D" style="ellipse;whiteSpace=wrap;html=1;aspect=fixed;rounded=1;shadow=0;glass=0;labelBackgroundColor=none;strokeColor=none;strokeWidth=1;fillColor=#12AAB5;gradientColor=none;fontFamily=Helvetica;fontSize=16;fontColor=#2F5B7C;align=right;opacity=50;spacing=15;" vertex="1" parent="1">
          <mxGeometry x="649.5" y="410" width="120" height="120" as="geometry" />
        </mxCell>
        <mxCell id="U8a9kqxpGam07MCW7ury-21657" value="&lt;div style=&quot;text-align: center; font-size: 16px;&quot;&gt;U&lt;/div&gt;" style="ellipse;whiteSpace=wrap;html=1;aspect=fixed;rounded=1;shadow=0;glass=0;labelBackgroundColor=none;strokeColor=none;strokeWidth=1;fillColor=light-dark(#ae32aa, #ec8f82);gradientColor=none;fontFamily=Helvetica;fontSize=16;fontColor=#2F5B7C;align=center;opacity=50;verticalAlign=bottom;spacingBottom=15;spacing=15;" vertex="1" parent="1">
          <mxGeometry x="780" y="410" width="120" height="120" as="geometry" />
        </mxCell>
        <mxCell id="U8a9kqxpGam07MCW7ury-21658" value="&lt;div style=&quot;text-align: center; font-size: 16px;&quot;&gt;&lt;span style=&quot;font-size: 16px;&quot;&gt;U&lt;/span&gt;&lt;/div&gt;" style="ellipse;whiteSpace=wrap;html=1;aspect=fixed;rounded=1;shadow=0;glass=0;labelBackgroundColor=none;strokeColor=#d6b656;strokeWidth=1;fillColor=light-dark(#fff8cc, #281d00);fontFamily=Helvetica;fontSize=16;align=center;opacity=50;verticalAlign=top;spacing=15;" vertex="1" parent="1">
          <mxGeometry x="910" y="410" width="120" height="120" as="geometry" />
        </mxCell>
      </root>
    </mxGraphModel>
  </diagram>
</mxfile>
